# xmcd
#
# Track frame offsets:
#	150
#	15266
#	28821
#	45139
#	59345
#	71464
#	86710
#	100018
#	114381
#	130707
#	146426
#
# Disc length: 2164 seconds
#
# Revision: 1
# Processed by: cddbd v1.5.2PL0 Copyright (c) Steve Scherf et al.
# Submitted via: audiograbber 1.83.01
#
DISCID=8108720b
DTITLE=Kevin Bloody Wilson - Excess All Areas
DYEAR=2009
DGENRE=Adult Comedy
TTITLE0=Don't Let The Goat Go
TTITLE1=Nigel And Wilma
TTITLE2=Old Home Videos
TTITLE3=Bring Back The Biff
TTITLE4=Butter Face
TTITLE5=You Can't Call Me Kev Anymore
TTITLE6=Black Is Black
TTITLE7=The Cougar Song
TTITLE8=Common Sense
TTITLE9=Me Beers Cut Off
TTITLE10=Readin' Me My Wrongs
EXTD=
EXTT0=
EXTT1=
EXTT2=
EXTT3=
EXTT4=
EXTT5=
EXTT6=
EXTT7=
EXTT8=
EXTT9=
EXTT10=
PLAYORDER=
